<svg id="SvgjsSvg1006" width="5000" height="4109" xmlns="http://www.w3.org/2000/svg" version="1.1" xmlns:xlink="http://www.w3.org/1999/xlink" xmlns:svgjs="http://svgjs.com/svgjs" viewBox="0 0 486.640625 400"><defs id="SvgjsDefs1007"></defs><g id="SvgjsG1009"><svg width="400" height="400" x="43.3125" y="0" xmlns="http://www.w3.org/2000/svg" version="1.1" xmlns:xlink="http://www.w3.org/1999/xlink" xmlns:svgjs="http://svgjs.com/svgjs" preserveAspectRatio="none"><rect width="387" height="387" stroke-width="13" stroke="#9999ff" stroke-opacity="1" fill="#ffffff" fill-opacity="0" x="6.5" y="6.5" rx="0" ry="0"></rect><defs id="SvgjsDefs1008"></defs></svg></g><g id="SvgjsG1011" transform="rotate(0 243.3125 136.3515625)"><svg xmlns="http://www.w3.org/2000/svg" xmlns:xlink="http://www.w3.org/1999/xlink" xmlns:sketch="http://www.bohemiancoding.com/sketch/ns" viewBox="5 6 90 87.20694732666016" version="1.1" x="125.3125" y="22.015625" width="236" height="228.671875" xmlns:svgjs="http://svgjs.com/svgjs" preserveAspectRatio="none" fill="#999999" fill-opacity="0.5" stroke="none"><title>ht-1</title><desc>Created with Sketch.</desc><g stroke-width="1" fill-rule="evenodd" sketch:type="MSPage"><path d="M51.7445929,60.3663956 L43.2043257,60.3663956 C39.2490957,60.3663956 36.313981,56.699163 37.1809626,52.8399322 L39.2427844,43.6608888 C39.8755813,40.8430325 42.3778696,38.8403381 45.2661475,38.8403381 L53.8064147,38.8403381 C57.7616446,38.8403381 60.6964273,42.5079029 59.8297778,46.3668016 L57.767956,55.5458449 C57.1351591,58.3637013 54.6328707,60.3663956 51.7445929,60.3663956 M95,32.6668311 L95,31.7267706 C95,28.3173072 92.2359563,25.5532635 88.826493,25.5532635 L85.8369012,25.5532635 C81.8816712,25.5532635 78.9465564,21.8860309 79.8135381,18.0268001 L80.7778475,13.7337463 C81.5249133,10.406995 79.4338599,7.10449257 76.1071086,6.3574268 L75.1899683,6.15147714 C71.8635491,5.40407919 68.5610467,7.49513256 67.8136488,10.8218839 L65.5877316,20.7327128 C64.9546025,23.5509014 62.4523142,25.5532635 59.5640363,25.5532635 L51.0241013,25.5532635 C47.0688713,25.5532635 44.1337566,21.8860309 45.0007382,18.0268001 L45.9650476,13.7337463 C46.7121134,10.406995 44.62106,7.10449257 41.2943087,6.3574268 L40.3775006,6.15147714 C37.0507492,5.40407919 33.7482468,7.49513256 33.0011811,10.8218839 L30.7749317,20.7327128 C30.1418026,23.5509014 27.6395143,25.5532635 24.7512364,25.5532635 L14.4753451,25.5532635 C11.0658817,25.5532635 8.30183805,28.3173072 8.30183805,31.7267706 L8.30183805,32.6668311 C8.30183805,36.0762944 11.0658817,38.8403381 14.4753451,38.8403381 L18.9932826,38.8403381 C22.9488448,38.8403381 25.8836274,42.5079029 25.0169779,46.3668016 L22.9551561,55.5458449 C22.322027,58.3640334 19.8197387,60.3663956 16.931793,60.3663956 L11.1738392,60.3663956 C7.7640437,60.3663956 5,63.1304393 5,66.5399026 L5,67.4799632 C5,70.8894265 7.7640437,73.6534702 11.1738392,73.6534702 L11.1738392,73.6534702 C15.1290692,73.6534702 18.0638518,77.3207028 17.1972023,81.1799336 L16.2328929,85.4729874 C15.4854949,88.7997387 17.5765483,92.1022411 20.9032996,92.8496391 L21.8204399,93.0555888 C25.1471913,93.8026545 28.4496937,91.7116012 29.1967594,88.385182 L31.4230088,78.4740209 C32.0561379,75.6558323 34.558094,73.6534702 37.4463719,73.6534702 L45.9866391,73.6534702 C49.941869,73.6534702 52.8769838,77.3207028 52.0100022,81.1799336 L51.0456928,85.4729874 C50.298627,88.7997387 52.3896804,92.1022411 55.7164317,92.8496391 L56.633572,93.0555888 C59.9599911,93.8026545 63.2624935,91.7116012 64.0098915,88.3848498 L66.2358087,78.4740209 C66.8689378,75.6561645 69.3712261,73.6534702 72.2595039,73.6534702 L85.5246549,73.6534702 C88.9344504,73.6534702 91.698162,70.8894265 91.698162,67.4799632 L91.698162,66.5399026 C91.698162,63.1304393 88.9344504,60.3663956 85.5246549,60.3663956 L78.0171256,60.3663956 C74.0618956,60.3663956 71.127113,56.699163 71.9937625,52.8399322 L74.0555843,43.6608888 C74.6883812,40.8430325 77.1906695,38.8403381 80.0789474,38.8403381 L88.826493,38.8403381 C92.2359563,38.8403381 95,36.0762944 95,32.6668311" sketch:type="MSShapeGroup"></path></g><defs id="SvgjsDefs1010"></defs></svg></g><g id="SvgjsG1013" transform="rotate(0 243.3203125 307.7421875)"><svg xmlns="http://www.w3.org/2000/svg" xmlns:xlink="http://www.w3.org/1999/xlink" width="486.640625" viewBox="0.64000004529953 -0.8300000429153442 486.6499938964844 68.12000274658203" overflow="visible" style="overflow: visible;" transform="" version="1.1" xmlns:svgjs="http://svgjs.com/svgjs" preserveAspectRatio="none" height="68.109375" x="0" y="273.6875" fill="#000000" stroke="none"><path stroke="none" fill="#ff9900" d="M47.83 1.56L47.83 1.56L45.26 20.93L45.26 20.93Q43.92 20.56 42.59 20.42L42.59 20.42L42.59 20.42Q41.26 20.29 39.93 20.29L39.93 20.29L39.93 20.29Q36.54 20.29 33.46 21.18L33.46 21.18L33.46 21.18Q30.38 22.08 28.02 23.91L28.02 23.91L28.02 23.91Q25.66 25.75 24.26 28.50L24.26 28.50L24.26 28.50Q22.86 31.26 22.86 34.97L22.86 34.97L22.86 34.97Q22.86 37.36 23.61 39.11L23.61 39.11L23.61 39.11Q24.37 40.85 25.75 42.00L25.75 42.00L25.75 42.00Q27.13 43.14 29.01 43.70L29.01 43.70L29.01 43.70Q30.89 44.25 33.14 44.25L33.14 44.25L33.14 44.25Q34.84 44.25 36.67 43.88L36.67 43.88L36.67 43.88Q38.51 43.51 40.30 42.92L40.30 42.92L40.30 42.92Q42.09 42.32 43.79 41.54L43.79 41.54L43.79 41.54Q45.49 40.76 46.91 39.93L46.91 39.93L45.07 61.50L45.07 61.50Q43.28 62.42 41.19 63.13L41.19 63.13L41.19 63.13Q39.11 63.84 36.90 64.37L36.90 64.37L36.90 64.37Q34.70 64.90 32.50 65.18L32.50 65.18L32.50 65.18Q30.29 65.45 28.27 65.45L28.27 65.45L28.27 65.45Q22.44 65.45 17.40 63.29L17.40 63.29L17.40 63.29Q12.35 61.14 8.63 57.37L8.63 57.37L8.63 57.37Q4.91 53.61 2.78 48.49L2.78 48.49L2.78 48.49Q0.64 43.37 0.64 37.45L0.64 37.45L0.64 37.45Q0.64 29.60 2.89 22.65L2.89 22.65L2.89 22.65Q5.14 15.70 9.50 10.46L9.50 10.46L9.50 10.46Q13.86 5.23 20.31 2.20L20.31 2.20L20.31 2.20Q26.76-0.83 35.16-0.83L35.16-0.83L35.16-0.83Q38.33-0.83 41.65-0.32L41.65-0.32L41.65-0.32Q44.98 0.18 47.83 1.56ZM101.71 30.94L101.71 30.94L101.71 30.94Q101.71 35.11 100.75 38.99L100.75 38.99L100.75 38.99Q99.79 42.87 97.97 46.27L97.97 46.27L97.97 46.27Q96.16 49.66 93.57 52.48L93.57 52.48L93.57 52.48Q90.97 55.31 87.74 57.33L87.74 57.33L87.74 57.33Q84.50 59.35 80.69 60.47L80.69 60.47L80.69 60.47Q76.88 61.60 72.61 61.60L72.61 61.60L72.61 61.60Q68.48 61.60 64.74 60.54L64.74 60.54L64.74 60.54Q61.00 59.48 57.74 57.58L57.74 57.58L57.74 57.58Q54.48 55.67 51.85 52.99L51.85 52.99L51.85 52.99Q49.21 50.30 47.35 47.02L47.35 47.02L47.35 47.02Q45.49 43.74 44.46 39.98L44.46 39.98L44.46 39.98Q43.42 36.21 43.42 32.13L43.42 32.13L43.42 32.13Q43.42 28.14 44.39 24.30L44.39 24.30L44.39 24.30Q45.35 20.47 47.16 17.07L47.16 17.07L47.16 17.07Q48.98 13.68 51.55 10.83L51.55 10.83L51.55 10.83Q54.12 7.99 57.31 5.92L57.31 5.92L57.31 5.92Q60.50 3.86 64.21 2.71L64.21 2.71L64.21 2.71Q67.93 1.56 72.06 1.56L72.06 1.56L72.06 1.56Q78.72 1.56 84.20 3.63L84.20 3.63L84.20 3.63Q89.69 5.69 93.57 9.52L93.57 9.52L93.57 9.52Q97.45 13.36 99.58 18.80L99.58 18.80L99.58 18.80Q101.71 24.23 101.71 30.94ZM81.33 32.13L81.33 32.13L81.33 32.13Q81.33 30.16 80.76 28.30L80.76 28.30L80.76 28.30Q80.19 26.44 79.09 24.99L79.09 24.99L79.09 24.99Q77.98 23.55 76.35 22.65L76.35 22.65L76.35 22.65Q74.73 21.76 72.61 21.76L72.61 21.76L72.61 21.76Q70.46 21.76 68.76 22.54L68.76 22.54L68.76 22.54Q67.06 23.32 65.84 24.67L65.84 24.67L65.84 24.67Q64.63 26.02 63.99 27.84L63.99 27.84L63.99 27.84Q63.34 29.65 63.34 31.67L63.34 31.67L63.34 31.67Q63.34 33.60 63.89 35.53L63.89 35.53L63.89 35.53Q64.44 37.45 65.55 39.01L65.55 39.01L65.55 39.01Q66.65 40.57 68.28 41.54L68.28 41.54L68.28 41.54Q69.91 42.50 72.06 42.50L72.06 42.50L72.06 42.50Q74.22 42.50 75.94 41.65L75.94 41.65L75.94 41.65Q77.66 40.80 78.86 39.36L78.86 39.36L78.86 39.36Q80.05 37.91 80.69 36.03L80.69 36.03L80.69 36.03Q81.33 34.15 81.33 32.13ZM121.54 41.77L140.18 41.77L138.25 62.15L99.61 65.18L101.07-0.37L124.94-0.37L121.54 41.77ZM158.96 41.77L177.59 41.77L175.66 62.15L137.02 65.18L138.48-0.37L162.35-0.37L158.96 41.77ZM225.97 29.01L225.97 29.01L225.97 29.01Q225.97 33.00 225.42 36.99L225.42 36.99L225.42 36.99Q217.57 37.50 209.81 38.62L209.81 38.62L209.81 38.62Q202.06 39.75 194.30 40.85L194.30 40.85L194.30 40.85Q195.49 44.15 198.04 46.13L198.04 46.13L198.04 46.13Q200.59 48.10 204.12 48.10L204.12 48.10L204.12 48.10Q205.96 48.10 208.14 47.41L208.14 47.41L208.14 47.41Q210.32 46.72 212.48 45.69L212.48 45.69L212.48 45.69Q214.63 44.66 216.61 43.47L216.61 43.47L216.61 43.47Q218.58 42.27 220.00 41.31L220.00 41.31L217.80 62.15L217.80 62.15Q216.01 63.52 213.92 64.49L213.92 64.49L213.92 64.49Q211.83 65.45 209.58 66.05L209.58 66.05L209.58 66.05Q207.33 66.64 205.04 66.92L205.04 66.92L205.04 66.92Q202.75 67.20 200.54 67.20L200.54 67.20L200.54 67.20Q196.00 67.20 192.23 65.96L192.23 65.96L192.23 65.96Q188.47 64.72 185.42 62.49L185.42 62.49L185.42 62.49Q182.37 60.26 180.07 57.24L180.07 57.24L180.07 57.24Q177.78 54.21 176.26 50.63L176.26 50.63L176.26 50.63Q174.75 47.05 173.97 43.05L173.97 43.05L173.97 43.05Q173.19 39.06 173.19 34.97L173.19 34.97L173.19 34.97Q173.19 30.71 173.97 26.44L173.97 26.44L173.97 26.44Q174.75 22.17 176.33 18.22L176.33 18.22L176.33 18.22Q177.91 14.27 180.32 10.90L180.32 10.90L180.32 10.90Q182.73 7.53 185.95 5.00L185.95 5.00L185.95 5.00Q189.16 2.48 193.22 1.06L193.22 1.06L193.22 1.06Q197.28-0.37 202.19-0.37L202.19-0.37L202.19-0.37Q206.28-0.37 209.65 0.76L209.65 0.76L209.65 0.76Q213.03 1.88 215.67 3.88L215.67 3.88L215.67 3.88Q218.30 5.88 220.26 8.63L220.26 8.63L220.26 8.63Q222.21 11.38 223.47 14.66L223.47 14.66L223.47 14.66Q224.73 17.95 225.35 21.60L225.35 21.60L225.35 21.60Q225.97 25.24 225.97 29.01ZM207.61 27.63L207.61 26.62L207.61 26.62Q207.61 25.34 207.33 23.98L207.33 23.98L207.33 23.98Q207.06 22.63 206.44 21.53L206.44 21.53L206.44 21.53Q205.82 20.42 204.81 19.71L204.81 19.71L204.81 19.71Q203.80 19.00 202.29 19.00L202.29 19.00L202.29 19.00Q200.45 19.00 199.05 19.99L199.05 19.99L199.05 19.99Q197.65 20.98 196.64 22.47L196.64 22.47L196.64 22.47Q195.63 23.96 194.99 25.70L194.99 25.70L194.99 25.70Q194.35 27.45 194.02 28.92L194.02 28.92L207.61 27.63ZM267.74 3.40L267.74 3.40L266.09 22.77L266.09 22.77Q264.76 22.40 263.47 22.26L263.47 22.26L263.47 22.26Q262.19 22.12 260.86 22.12L260.86 22.12L260.86 22.12Q257.60 22.12 254.64 22.95L254.64 22.95L254.64 22.95Q251.68 23.78 249.40 25.47L249.40 25.47L249.40 25.47Q247.13 27.17 245.78 29.77L245.78 29.77L245.78 29.77Q244.42 32.36 244.42 35.89L244.42 35.89L244.42 35.89Q244.42 38.46 245.18 40.37L245.18 40.37L245.18 40.37Q245.94 42.27 247.34 43.53L247.34 43.53L247.34 43.53Q248.74 44.80 250.73 45.44L250.73 45.44L250.73 45.44Q252.73 46.08 255.16 46.08L255.16 46.08L255.16 46.08Q256.86 46.08 258.65 45.74L258.65 45.74L258.65 45.74Q260.44 45.39 262.23 44.80L262.23 44.80L262.23 44.80Q264.02 44.20 265.67 43.42L265.67 43.42L265.67 43.42Q267.33 42.64 268.75 41.77L268.75 41.77L268.02 63.34L268.02 63.34Q266.23 64.26 264.16 64.97L264.16 64.97L264.16 64.97Q262.09 65.68 259.91 66.21L259.91 66.21L259.91 66.21Q257.73 66.74 255.55 67.01L255.55 67.01L255.55 67.01Q253.37 67.29 251.40 67.29L251.40 67.29L251.40 67.29Q244.88 67.29 239.54 64.85L239.54 64.85L239.54 64.85Q234.19 62.42 230.36 58.22L230.36 58.22L230.36 58.22Q226.52 54.02 224.41 48.47L224.41 48.47L224.41 48.47Q222.30 42.92 222.30 36.63L222.30 36.63L222.30 36.63Q222.30 29.10 224.44 22.58L224.44 22.58L224.44 22.58Q226.57 16.06 230.72 11.27L230.72 11.27L230.72 11.27Q234.88 6.47 241.00 3.74L241.00 3.74L241.00 3.74Q247.13 1.01 255.07 1.01L255.07 1.01L255.07 1.01Q258.24 1.01 261.50 1.51L261.50 1.51L261.50 1.51Q264.76 2.02 267.74 3.40ZM265.72 1.47L315.75 1.38L315.29 20.84L301.62 21.39L299.96 63.98L280.59 64.99L278.85 22.40L265.17 23.13L265.72 1.47ZM357.52 1.56L357.52 1.56L354.95 20.93L354.95 20.93Q353.62 20.56 352.29 20.42L352.29 20.42L352.29 20.42Q350.96 20.29 349.63 20.29L349.63 20.29L349.63 20.29Q346.23 20.29 343.16 21.18L343.16 21.18L343.16 21.18Q340.08 22.08 337.72 23.91L337.72 23.91L337.72 23.91Q335.35 25.75 333.95 28.50L333.95 28.50L333.95 28.50Q332.55 31.26 332.55 34.97L332.55 34.97L332.55 34.97Q332.55 37.36 333.31 39.11L333.31 39.11L333.31 39.11Q334.07 40.85 335.45 42.00L335.45 42.00L335.45 42.00Q336.82 43.14 338.71 43.70L338.71 43.70L338.71 43.70Q340.59 44.25 342.84 44.25L342.84 44.25L342.84 44.25Q344.53 44.25 346.37 43.88L346.37 43.88L346.37 43.88Q348.21 43.51 350.00 42.92L350.00 42.92L350.00 42.92Q351.79 42.32 353.48 41.54L353.48 41.54L353.48 41.54Q355.18 40.76 356.61 39.93L356.61 39.93L354.77 61.50L354.77 61.50Q352.98 62.42 350.89 63.13L350.89 63.13L350.89 63.13Q348.80 63.84 346.60 64.37L346.60 64.37L346.60 64.37Q344.40 64.90 342.19 65.18L342.19 65.18L342.19 65.18Q339.99 65.45 337.97 65.45L337.97 65.45L337.97 65.45Q332.14 65.45 327.09 63.29L327.09 63.29L327.09 63.29Q322.04 61.14 318.33 57.37L318.33 57.37L318.33 57.37Q314.61 53.61 312.47 48.49L312.47 48.49L312.47 48.49Q310.34 43.37 310.34 37.45L310.34 37.45L310.34 37.45Q310.34 29.60 312.59 22.65L312.59 22.65L312.59 22.65Q314.84 15.70 319.20 10.46L319.20 10.46L319.20 10.46Q323.56 5.23 330.01 2.20L330.01 2.20L330.01 2.20Q336.46-0.83 344.86-0.83L344.86-0.83L344.86-0.83Q348.02-0.83 351.35-0.32L351.35-0.32L351.35-0.32Q354.68 0.18 357.52 1.56ZM411.41 30.94L411.41 30.94L411.41 30.94Q411.41 35.11 410.45 38.99L410.45 38.99L410.45 38.99Q409.48 42.87 407.67 46.27L407.67 46.27L407.67 46.27Q405.86 49.66 403.26 52.48L403.26 52.48L403.26 52.48Q400.67 55.31 397.44 57.33L397.44 57.33L397.44 57.33Q394.20 59.35 390.39 60.47L390.39 60.47L390.39 60.47Q386.58 61.60 382.31 61.60L382.31 61.60L382.31 61.60Q378.18 61.60 374.44 60.54L374.44 60.54L374.44 60.54Q370.70 59.48 367.44 57.58L367.44 57.58L367.44 57.58Q364.18 55.67 361.54 52.99L361.54 52.99L361.54 52.99Q358.90 50.30 357.04 47.02L357.04 47.02L357.04 47.02Q355.19 43.74 354.15 39.98L354.15 39.98L354.15 39.98Q353.12 36.21 353.12 32.13L353.12 32.13L353.12 32.13Q353.12 28.14 354.08 24.30L354.08 24.30L354.08 24.30Q355.05 20.47 356.86 17.07L356.86 17.07L356.86 17.07Q358.67 13.68 361.24 10.83L361.24 10.83L361.24 10.83Q363.81 7.99 367.00 5.92L367.00 5.92L367.00 5.92Q370.19 3.86 373.91 2.71L373.91 2.71L373.91 2.71Q377.63 1.56 381.76 1.56L381.76 1.56L381.76 1.56Q388.42 1.56 393.90 3.63L393.90 3.63L393.90 3.63Q399.39 5.69 403.26 9.52L403.26 9.52L403.26 9.52Q407.14 13.36 409.28 18.80L409.28 18.80L409.28 18.80Q411.41 24.23 411.41 30.94ZM391.03 32.13L391.03 32.13L391.03 32.13Q391.03 30.16 390.46 28.30L390.46 28.30L390.46 28.30Q389.88 26.44 388.78 24.99L388.78 24.99L388.78 24.99Q387.68 23.55 386.05 22.65L386.05 22.65L386.05 22.65Q384.42 21.76 382.31 21.76L382.31 21.76L382.31 21.76Q380.15 21.76 378.46 22.54L378.46 22.54L378.46 22.54Q376.76 23.32 375.54 24.67L375.54 24.67L375.54 24.67Q374.33 26.02 373.68 27.84L373.68 27.84L373.68 27.84Q373.04 29.65 373.04 31.67L373.04 31.67L373.04 31.67Q373.04 33.60 373.59 35.53L373.59 35.53L373.59 35.53Q374.14 37.45 375.24 39.01L375.24 39.01L375.24 39.01Q376.34 40.57 377.97 41.54L377.97 41.54L377.97 41.54Q379.60 42.50 381.76 42.50L381.76 42.50L381.76 42.50Q383.92 42.50 385.64 41.65L385.64 41.65L385.64 41.65Q387.36 40.80 388.55 39.36L388.55 39.36L388.55 39.36Q389.75 37.91 390.39 36.03L390.39 36.03L390.39 36.03Q391.03 34.15 391.03 32.13ZM431.24 41.77L449.88 41.77L447.95 62.15L409.30 65.18L410.77-0.37L434.64-0.37L431.24 41.77ZM468.65 41.77L487.29 41.77L485.36 62.15L446.71 65.18L448.18-0.37L472.05-0.37L468.65 41.77Z" transform="rotate(0 243.96499699354172 33.23000133037567)"></path><defs id="SvgjsDefs1012"></defs></svg></g><g id="SvgjsG1015" transform="rotate(0 243.3203125 364.8984375)"><svg xmlns="http://www.w3.org/2000/svg" xmlns:xlink="http://www.w3.org/1999/xlink" width="150.859375" viewBox="1.3200000524520874 7.920000076293945 150.8699951171875 20.209999084472656" overflow="visible" style="overflow: visible;" transform="" version="1.1" xmlns:svgjs="http://svgjs.com/svgjs" preserveAspectRatio="none" height="20.203125" x="167.890625" y="354.796875" fill="#000000" stroke="none"><path stroke="none" fill="#99ff99" d="M8.42 28.13L8.42 28.13L8.42 28.13Q6.40 28.13 4.77 27.13L4.77 27.13L4.77 27.13Q3.13 26.13 2.23 24.35L2.23 24.35L2.23 24.35Q1.32 22.57 1.32 20.36L1.32 20.36L1.32 19.73L1.32 19.73Q1.32 17.45 2.20 15.62L2.20 15.62L2.20 15.62Q3.09 13.78 4.67 12.74L4.67 12.74L4.67 12.74Q6.25 11.69 8.10 11.69L8.10 11.69L8.10 11.69Q10.99 11.69 12.68 13.66L12.68 13.66L12.68 13.66Q14.37 15.63 14.37 19.04L14.37 19.04L14.37 20.02L3.06 20.02L3.06 20.36L3.06 20.36Q3.06 23.06 4.61 24.85L4.61 24.85L4.61 24.85Q6.15 26.65 8.50 26.65L8.50 26.65L8.50 26.65Q9.90 26.65 10.98 26.13L10.98 26.13L10.98 26.13Q12.06 25.62 12.93 24.49L12.93 24.49L14.03 25.33L14.03 25.33Q12.10 28.13 8.42 28.13ZM8.10 13.18L8.10 13.18L8.10 13.18Q6.12 13.18 4.77 14.63L4.77 14.63L4.77 14.63Q3.41 16.08 3.12 18.53L3.12 18.53L12.63 18.53L12.63 18.34L12.63 18.34Q12.55 16.05 11.32 14.62L11.32 14.62L11.32 14.62Q10.09 13.18 8.10 13.18ZM23.75 7.92L25.51 7.92L25.51 11.98L28.79 11.98L28.79 13.42L25.51 13.42L25.51 23.98L25.51 23.98Q25.51 25.30 25.98 25.94L25.98 25.94L25.98 25.94Q26.46 26.59 27.57 26.59L27.57 26.59L27.57 26.59Q28.01 26.59 28.99 26.44L28.99 26.44L29.07 27.88L29.07 27.88Q28.38 28.13 27.19 28.13L27.19 28.13L27.19 28.13Q25.39 28.13 24.57 27.08L24.57 27.08L24.57 27.08Q23.75 26.03 23.75 23.99L23.75 23.99L23.75 13.42L20.83 13.42L20.83 11.98L23.75 11.98L23.75 7.92ZM55.58 26.65L55.58 26.65L55.58 26.65Q57.41 26.65 58.65 25.61L58.65 25.61L58.65 25.61Q59.88 24.58 59.99 22.94L59.99 22.94L61.67 22.94L61.67 22.94Q61.60 24.39 60.76 25.58L60.76 25.58L60.76 25.58Q59.93 26.78 58.54 27.45L58.54 27.45L58.54 27.45Q57.16 28.13 55.58 28.13L55.58 28.13L55.58 28.13Q52.46 28.13 50.63 25.96L50.63 25.96L50.63 25.96Q48.81 23.79 48.81 20.13L48.81 20.13L48.81 19.60L48.81 19.60Q48.81 17.26 49.63 15.45L49.63 15.45L49.63 15.45Q50.45 13.65 51.98 12.67L51.98 12.67L51.98 12.67Q53.51 11.69 55.56 11.69L55.56 11.69L55.56 11.69Q58.17 11.69 59.86 13.24L59.86 13.24L59.86 13.24Q61.55 14.79 61.67 17.33L61.67 17.33L59.99 17.33L59.99 17.33Q59.87 15.47 58.65 14.33L58.65 14.33L58.65 14.33Q57.42 13.18 55.56 13.18L55.56 13.18L55.56 13.18Q53.19 13.18 51.88 14.90L51.88 14.90L51.88 14.90Q50.57 16.61 50.57 19.70L50.57 19.70L50.57 20.21L50.57 20.21Q50.57 23.25 51.88 24.95L51.88 24.95L51.88 24.95Q53.19 26.65 55.58 26.65ZM76.31 28.13L76.31 28.13L76.31 28.13Q74.29 28.13 72.65 27.13L72.65 27.13L72.65 27.13Q71.02 26.13 70.11 24.35L70.11 24.35L70.11 24.35Q69.20 22.57 69.20 20.36L69.20 20.36L69.20 19.73L69.20 19.73Q69.20 17.45 70.09 15.62L70.09 15.62L70.09 15.62Q70.98 13.78 72.56 12.74L72.56 12.74L72.56 12.74Q74.14 11.69 75.99 11.69L75.99 11.69L75.99 11.69Q78.87 11.69 80.56 13.66L80.56 13.66L80.56 13.66Q82.26 15.63 82.26 19.04L82.26 19.04L82.26 20.02L70.95 20.02L70.95 20.36L70.95 20.36Q70.95 23.06 72.49 24.85L72.49 24.85L72.49 24.85Q74.04 26.65 76.38 26.65L76.38 26.65L76.38 26.65Q77.79 26.65 78.86 26.13L78.86 26.13L78.86 26.13Q79.94 25.62 80.82 24.49L80.82 24.49L81.92 25.33L81.92 25.33Q79.99 28.13 76.31 28.13ZM75.99 13.18L75.99 13.18L75.99 13.18Q74.01 13.18 72.65 14.63L72.65 14.63L72.65 14.63Q71.30 16.08 71.01 18.53L71.01 18.53L80.51 18.53L80.51 18.34L80.51 18.34Q80.44 16.05 79.21 14.62L79.21 14.62L79.21 14.62Q77.98 13.18 75.99 13.18ZM91.64 7.92L93.39 7.92L93.39 11.98L96.67 11.98L96.67 13.42L93.39 13.42L93.39 23.98L93.39 23.98Q93.39 25.30 93.87 25.94L93.87 25.94L93.87 25.94Q94.35 26.59 95.46 26.59L95.46 26.59L95.46 26.59Q95.90 26.59 96.88 26.44L96.88 26.44L96.95 27.88L96.95 27.88Q96.26 28.13 95.08 28.13L95.08 28.13L95.08 28.13Q93.28 28.13 92.46 27.08L92.46 27.08L92.46 27.08Q91.64 26.03 91.64 23.99L91.64 23.99L91.64 13.42L88.72 13.42L88.72 11.98L91.64 11.98L91.64 7.92ZM111.45 28.13L111.45 28.13L111.45 28.13Q109.42 28.13 107.79 27.13L107.79 27.13L107.79 27.13Q106.16 26.13 105.25 24.35L105.25 24.35L105.25 24.35Q104.34 22.57 104.34 20.36L104.34 20.36L104.34 19.73L104.34 19.73Q104.34 17.45 105.23 15.62L105.23 15.62L105.23 15.62Q106.11 13.78 107.70 12.74L107.70 12.74L107.70 12.74Q109.28 11.69 111.12 11.69L111.12 11.69L111.12 11.69Q114.01 11.69 115.70 13.66L115.70 13.66L115.70 13.66Q117.39 15.63 117.39 19.04L117.39 19.04L117.39 20.02L106.08 20.02L106.08 20.36L106.08 20.36Q106.08 23.06 107.63 24.85L107.63 24.85L107.63 24.85Q109.17 26.65 111.52 26.65L111.52 26.65L111.52 26.65Q112.92 26.65 114.00 26.13L114.00 26.13L114.00 26.13Q115.08 25.62 115.96 24.49L115.96 24.49L117.06 25.33L117.06 25.33Q115.12 28.13 111.45 28.13ZM111.12 13.18L111.12 13.18L111.12 13.18Q109.15 13.18 107.79 14.63L107.79 14.63L107.79 14.63Q106.44 16.08 106.14 18.53L106.14 18.53L115.65 18.53L115.65 18.34L115.65 18.34Q115.58 16.05 114.35 14.62L114.35 14.62L114.35 14.62Q113.12 13.18 111.12 13.18ZM133.17 11.88L133.13 13.48L133.13 13.48Q132.57 13.37 131.94 13.37L131.94 13.37L131.94 13.37Q130.30 13.37 129.17 14.29L129.17 14.29L129.17 14.29Q128.03 15.21 127.55 16.95L127.55 16.95L127.55 27.83L125.81 27.83L125.81 11.98L127.52 11.98L127.55 14.50L127.55 14.50Q128.94 11.69 132.02 11.69L132.02 11.69L132.02 11.69Q132.75 11.69 133.17 11.88L133.17 11.88ZM152.19 27.83L150.32 27.83L150.32 27.83Q150.05 27.08 149.98 25.62L149.98 25.62L149.98 25.62Q149.06 26.82 147.63 27.47L147.63 27.47L147.63 27.47Q146.20 28.13 144.60 28.13L144.60 28.13L144.60 28.13Q142.32 28.13 140.91 26.85L140.91 26.85L140.91 26.85Q139.49 25.58 139.49 23.63L139.49 23.63L139.49 23.63Q139.49 21.31 141.42 19.97L141.42 19.97L141.42 19.97Q143.34 18.62 146.79 18.62L146.79 18.62L149.97 18.62L149.97 16.82L149.97 16.82Q149.97 15.12 148.92 14.14L148.92 14.14L148.92 14.14Q147.87 13.17 145.86 13.17L145.86 13.17L145.86 13.17Q144.03 13.17 142.83 14.11L142.83 14.11L142.83 14.11Q141.63 15.04 141.63 16.36L141.63 16.36L139.87 16.35L139.87 16.35Q139.87 14.46 141.63 13.07L141.63 13.07L141.63 13.07Q143.39 11.69 145.95 11.69L145.95 11.69L145.95 11.69Q148.60 11.69 150.13 13.02L150.13 13.02L150.13 13.02Q151.67 14.34 151.71 16.71L151.71 16.71L151.71 24.21L151.71 24.21Q151.71 26.51 152.19 27.66L152.19 27.66L152.19 27.83ZM144.81 26.57L144.81 26.57L144.81 26.57Q146.57 26.57 147.95 25.72L147.95 25.72L147.95 25.72Q149.34 24.87 149.97 23.45L149.97 23.45L149.97 19.97L146.83 19.97L146.83 19.97Q144.21 20.00 142.73 20.93L142.73 20.93L142.73 20.93Q141.25 21.86 141.25 23.48L141.25 23.48L141.25 23.48Q141.25 24.81 142.24 25.69L142.24 25.69L142.24 25.69Q143.23 26.57 144.81 26.57Z" transform="rotate(0 76.75499761104584 18.024999618530273)"></path><defs id="SvgjsDefs1014"></defs></svg></g></svg>